<svg width="270" height="247" viewBox="0 0 270 247" fill="none" xmlns="http://www.w3.org/2000/svg">
<path d="M35.734 57.8543C35.734 57.8543 49.6109 15.3959 67.7225 5.69205C85.834 -4.01186 119.65 4.16928 119.65 4.16928C119.65 4.16928 135.042 6.60272 148.028 4.46786C161.014 2.34793 210.519 -16.7613 228.022 44.5076C228.022 44.5076 237.976 68.4688 247.336 79.0834C256.697 89.6981 290.201 120.631 252.462 162.806C252.462 162.806 240.694 173.42 228.007 202.846C215.334 232.27 213.52 252.888 157.062 244.707C157.062 244.707 135.622 239.243 108.165 244.707C80.708 250.171 62.5817 247.738 46.5801 216.506C46.5801 216.506 45.9709 203.458 20.0146 166.15C20.0146 166.15 -23.1468 127.931 17.2956 85.7716C17.2956 85.7716 31.3955 69.6332 35.7043 57.8692L35.734 57.8543Z" fill="#1B1B1B"/>
<path d="M88.2326 152.86C88.5694 155.934 89.7371 158.712 91.4859 160.994C92.3258 162.186 93.3428 163.281 94.532 164.24L95.2737 164.838C101.968 170.236 111.66 169.326 117.257 162.895C118.507 161.755 119.575 160.423 120.418 158.952L123.26 155.384L165.734 189.633C172.3 194.926 181.887 193.863 187.149 187.258L188.653 185.369C193.915 178.764 192.857 169.119 186.293 163.824L143.818 129.576L180.362 83.7005C185.874 76.7797 184.767 66.6729 177.889 61.1263L177.147 60.5284C170.268 54.9818 160.223 56.0958 154.71 63.0167L118.083 108.996L114.339 74.8198C113.362 65.8975 105.38 59.4617 96.5116 60.4453L94.3863 60.6809C85.5179 61.6643 79.1212 69.6945 80.0987 78.617L88.2326 152.86Z" fill="white"/>
<path d="M181.69 108.104C172.63 109.133 166.103 117.531 167.101 126.865C168.1 136.2 176.251 142.925 185.311 141.896C194.37 140.867 200.898 132.469 199.899 123.135C198.901 113.8 190.75 107.075 181.69 108.104Z" fill="white"/>
</svg>
