<svg width="309" height="352" viewBox="0 0 309 352" fill="none" xmlns="http://www.w3.org/2000/svg">
<path d="M20.9254 248.193C21.7814 256.121 24.7494 263.289 29.1945 269.175C31.3293 272.249 33.9143 275.074 36.9372 277.549L38.8222 279.091C55.8369 293.016 80.4735 290.668 94.6986 274.079C97.8771 271.137 100.591 267.701 102.733 263.906L109.956 254.704L217.917 343.052C234.606 356.709 258.975 353.964 272.349 336.926L276.171 332.054C289.546 315.016 286.858 290.134 270.172 276.476L162.211 188.127L255.098 69.7844C269.109 51.931 266.295 25.859 248.811 11.5506L246.926 10.0084C229.442 -4.29998 203.908 -1.42617 189.895 16.4272L96.7992 135.038L87.2821 46.8752C84.7975 23.8588 64.5098 7.25647 41.9687 9.79384L36.5668 10.4017C14.0253 12.9386 -2.23379 33.6538 0.250757 56.6706L20.9254 248.193Z" fill="white"/>
<path d="M262.633 134.78C239.686 137.362 223.156 158.442 225.683 181.872C228.214 205.302 248.858 222.181 271.805 219.599C294.747 217.017 311.281 195.938 308.75 172.508C306.223 149.077 285.58 132.198 262.633 134.78Z" fill="white"/>
</svg>
