<svg width="668" height="668" viewBox="0 0 668 668" fill="none" xmlns="http://www.w3.org/2000/svg">
<path d="M234 0.666687H67.3332C30.5142 0.666687 0.666504 30.5144 0.666504 67.3334V300.667C0.666504 337.486 30.5142 367.333 67.3332 367.333H234C270.819 367.333 300.667 337.486 300.667 300.667V67.3334C300.667 30.5144 270.819 0.666687 234 0.666687Z" fill="black"/>
<path d="M600.667 0.666687H434C397.181 0.666687 367.333 30.5144 367.333 67.3334V167.333C367.333 204.152 397.181 234 434 234H600.667C637.485 234 667.333 204.152 667.333 167.333V67.3334C667.333 30.5144 637.485 0.666687 600.667 0.666687Z" fill="black"/>
<path d="M234 434H67.3332C30.5142 434 0.666504 463.848 0.666504 500.667V600.667C0.666504 637.486 30.5142 667.333 67.3332 667.333H234C270.819 667.333 300.667 637.486 300.667 600.667V500.667C300.667 463.848 270.819 434 234 434Z" fill="black"/>
<path d="M600.333 300H433.667C396.848 300 367 329.848 367 366.667V600C367 636.819 396.848 666.667 433.667 666.667H600.333C637.152 666.667 667 636.819 667 600V366.667C667 329.848 637.152 300 600.333 300Z" fill="black"/>
</svg>
