<svg width="28" height="28" viewBox="0 0 28 28" fill="none" xmlns="http://www.w3.org/2000/svg">
<path d="M4.99975 6.99997C4.99975 5.14352 5.73724 3.36296 7.04997 2.05022C8.36271 0.737483 10.1433 0 11.9997 0C13.8562 0 15.6367 0.737483 16.9495 2.05022C18.2622 3.36296 18.9997 5.14352 18.9997 6.99997C18.9997 8.85643 18.2622 10.637 16.9495 11.9497C15.6367 13.2625 13.8562 13.9999 11.9997 13.9999C10.1433 13.9999 8.36271 13.2625 7.04997 11.9497C5.73724 10.637 4.99975 8.85643 4.99975 6.99997ZM19.27 17.0799C17.9591 16.3692 16.491 15.9978 14.9999 16.0001H8.99991C6.61289 16.0001 4.32381 16.9483 2.63593 18.636C0.948225 20.3239 0 22.613 0 25V27C0 27.2651 0.10536 27.5196 0.292856 27.7071C0.480353 27.8946 0.73482 28 0.999996 28H18.1102C16.581 26.5024 15.821 24.3875 16.0469 22.2594C16.273 20.1311 17.4605 18.223 19.2703 17.0802L19.27 17.0799ZM26.9997 22H23.9997V19C23.9997 18.6427 23.8091 18.3126 23.4997 18.134C23.1903 17.9554 22.8091 17.9554 22.4997 18.134C22.1903 18.3126 21.9997 18.6427 21.9997 19V22H18.9997C18.6423 22 18.3122 22.1907 18.1336 22.5C17.9551 22.8094 17.9551 23.1907 18.1336 23.5C18.3122 23.8094 18.6424 24 18.9997 24H21.9997V27C21.9997 27.3574 22.1903 27.6875 22.4997 27.8661C22.8091 28.0446 23.1903 28.0446 23.4997 27.8661C23.8091 27.6875 23.9997 27.3574 23.9997 27V24H26.9997C27.357 24 27.6872 23.8094 27.8657 23.5C28.0443 23.1907 28.0443 22.8094 27.8657 22.5C27.6872 22.1907 27.357 22 26.9997 22Z" fill="black"/>
</svg>
