<svg width="26" height="26" viewBox="0 0 26 26" fill="none" xmlns="http://www.w3.org/2000/svg">
<path d="M24.8608 5.25949C24.7674 4.20036 24.3041 3.20788 23.5521 2.45605C22.8001 1.70422 21.8075 1.24102 20.7481 1.14764C19.4362 1.03145 17.6306 0.947327 15.1635 0.947327C12.6964 0.947327 10.8927 1.03145 9.58084 1.14764C8.82908 1.21398 8.10581 1.46709 7.47678 1.88398C6.84774 2.30086 6.33288 2.8683 5.97899 3.53472C7.42708 3.42689 9.16617 3.37251 11.1596 3.37251C13.4091 3.37251 15.3346 3.44177 16.8836 3.57841C18.3129 3.704 19.6523 4.32907 20.6666 5.34384C21.6808 6.35861 22.305 7.69819 22.4295 9.12734C22.5662 10.676 22.6355 12.6011 22.6355 14.8501C22.6355 16.843 22.5811 18.5818 22.4732 20.0295C23.1398 19.6757 23.7074 19.161 24.1243 18.5321C24.5413 17.9032 24.7945 17.1801 24.8608 16.4285C24.977 15.1127 25.0612 13.3103 25.0612 10.8428C25.0612 8.37533 24.977 6.57108 24.8608 5.25949Z" fill="#DCDCDC"/>
<path d="M19.5692 10.4057C19.479 9.38444 19.0323 8.4275 18.3075 7.70254C17.5826 6.97759 16.6257 6.53086 15.6046 6.44065C14.3377 6.32861 12.5995 6.24793 10.2208 6.24793C7.84212 6.24793 6.10428 6.32726 4.83742 6.43841C3.8159 6.52862 2.85873 6.97563 2.1338 7.70106C1.40887 8.42649 0.962448 9.38401 0.872831 10.4057C0.760799 11.6705 0.679688 13.4085 0.679688 15.7879C0.679688 18.1673 0.760799 19.9071 0.872831 21.1719C0.962861 22.1932 1.40947 23.1503 2.13438 23.8753C2.85928 24.6003 3.81621 25.0469 4.83742 25.137C6.10428 25.249 7.84257 25.3301 10.2208 25.3301C12.599 25.3301 14.3377 25.249 15.6046 25.137C16.6258 25.0468 17.5827 24.6002 18.3075 23.8752C19.0324 23.1502 19.4791 22.1932 19.5692 21.1719C19.6812 19.9054 19.7619 18.1664 19.7619 15.7879C19.7619 13.4094 19.6803 11.6705 19.5692 10.4057ZM3.01533 10.5953C3.06007 10.0766 3.28628 9.59035 3.65414 9.22203C4.02201 8.85371 4.50798 8.62694 5.02653 8.58161C6.41259 8.45881 8.16029 8.39696 10.2208 8.39696C12.2813 8.39696 14.0299 8.45881 15.415 8.58161C15.9333 8.62685 16.419 8.85328 16.7869 9.22114C17.1548 9.58899 17.3813 10.0747 17.4267 10.593C17.549 11.9793 17.6109 13.7267 17.6109 15.7879C17.6109 17.8146 17.5508 19.5374 17.4316 20.912C16.7025 19.9007 15.9133 18.9342 15.0682 18.0176C14.7473 17.6752 14.271 17.5246 13.7969 17.5246C13.3227 17.5246 12.8468 17.677 12.526 18.0176C12.3954 18.158 12.2651 18.3013 12.1352 18.4474C12.0191 18.5782 11.876 18.6822 11.7157 18.7522C11.5555 18.8221 11.3819 18.8563 11.2071 18.8524C11.0323 18.8486 10.8604 18.8067 10.7034 18.7297C10.5464 18.6527 10.408 18.5425 10.2979 18.4066C9.74801 17.7241 9.16589 17.0455 8.58557 16.4225C8.17419 15.9829 7.56339 15.7902 6.95617 15.7879C6.34896 15.7857 5.73816 15.9829 5.32633 16.4225C4.48967 17.3216 3.64854 18.3358 2.90644 19.3111C2.8558 18.2699 2.8307 17.0921 2.8307 15.7879C2.8307 13.7267 2.89299 11.9793 3.01533 10.593V10.5953Z" fill="#DCDCDC"/>
<path d="M12.8685 16.8492C13.7467 16.8492 14.4587 15.6626 14.4587 14.1989C14.4587 12.7351 13.7467 11.5486 12.8685 11.5486C11.9902 11.5486 11.2783 12.7351 11.2783 14.1989C11.2783 15.6626 11.9902 16.8492 12.8685 16.8492Z" fill="#DCDCDC"/>
</svg>
