<svg width="673" height="673" viewBox="0 0 673 673" fill="none" xmlns="http://www.w3.org/2000/svg">
<path d="M523.053 74.6667V37.3333C523.053 23.9947 515.938 11.672 504.386 5C492.834 -1.66667 478.605 -1.66667 467.053 5C455.501 11.6719 448.386 23.9947 448.386 37.3333V74.6667H373.719V37.3333C373.719 23.9947 366.605 11.672 355.053 5C343.501 -1.66667 329.271 -1.66667 317.719 5C306.167 11.6719 299.053 23.9947 299.053 37.3333V74.6667H224.386V37.3333C224.386 23.9947 217.271 11.672 205.719 5C194.167 -1.66667 179.938 -1.66667 168.386 5C156.834 11.6719 149.719 23.9947 149.719 37.3333V74.6667C109.542 76.1197 71.5007 93.136 43.6367 122.115C15.7727 151.093 0.261992 189.771 0.385992 229.975V516.695C0.48495 557.856 16.8807 597.299 45.9847 626.403C75.0887 655.507 114.531 671.903 155.693 672.001H517.079C558.241 671.902 597.683 655.507 626.787 626.403C655.891 597.299 672.287 557.856 672.386 516.695V229.975C672.511 189.772 657.001 151.095 629.135 122.115C601.271 93.136 563.229 76.12 523.053 74.6667ZM474.891 325.173L325.558 474.507C318.548 481.574 309.006 485.554 299.053 485.554C289.099 485.554 279.558 481.574 272.547 474.507L197.881 399.84C188.407 390.371 184.709 376.569 188.178 363.632C191.641 350.695 201.746 340.591 214.683 337.127C227.62 333.658 241.423 337.356 250.891 346.83L299.052 395.36L421.88 272.163C431.349 262.689 445.151 258.991 458.088 262.46C471.026 265.924 481.13 276.028 484.594 288.965C488.062 301.903 484.365 315.705 474.891 325.173Z" fill="black"/>
</svg>
