<svg width="69" height="60" viewBox="0 0 69 60" fill="none" xmlns="http://www.w3.org/2000/svg">
<path d="M18 0C12.951 0 9 3.954 9 9C9 14.046 12.951 18 18 18C23.049 18 27 14.046 27 9C27 3.954 23.049 0 18 0ZM48 0C42.951 0 39 3.954 39 9C39 14.046 42.951 18 48 18C53.049 18 57 14.046 57 9C57 3.954 53.049 0 48 0ZM18 24C7.404 24 0 27.9684 0 33.6504V42H24V33.6504C24 30.4254 25.1698 27.5799 27.2578 25.2129C24.6148 24.4359 21.483 24 18 24ZM48 24C37.404 24 30 27.9684 30 33.6504V42H48V38.0039V36C48 32.685 50.685 30 54 30H64.8398C64.1678 28.983 63.1407 27.9276 61.5117 26.9766C58.2717 25.0866 53.346 24 48 24ZM54 36V45H45V51H54V60H60V51H69V45H60V36H54Z" fill="black"/>
</svg>
