<?xml version="1.0" encoding="UTF-8"?>
<svg width="23px" height="36px" viewBox="0 0 23 36" version="1.1" xmlns="http://www.w3.org/2000/svg" xmlns:xlink="http://www.w3.org/1999/xlink">
    <title>Group 4</title>
    <g id="V2-IC-EVENT" stroke="none" stroke-width="1" fill="none" fill-rule="evenodd">
        <g id="BACK-HOME" transform="translate(-119.000000, -187.000000)" fill="#B9B2B2">
            <g id="Group-4" transform="translate(119.000000, 187.000000)">
                <path d="M1.4,19 L9.6,19 C10.3731986,19 11,19.6268014 11,20.4 L11,36 L11,36 L0,36 L0,20.4 C-3.1673413e-16,19.6268014 0.62680135,19 1.4,19 Z" id="Rectangle"></path>
                <rect id="Rectangle" x="0" y="0" width="11" height="18" rx="1.4"></rect>
                <path d="M13.4,22 L21.6,22 C22.3731986,22 23,22.6268014 23,23.4 L23,36 L23,36 L12,36 L12,23.4 C12,22.6268014 12.6268014,22 13.4,22 Z" id="Rectangle"></path>
                <rect id="Rectangle" x="12" y="3" width="11" height="18" rx="1.4"></rect>
            </g>
        </g>
    </g>
</svg>