<svg width="762" height="224" viewBox="0 0 762 224" fill="none" xmlns="http://www.w3.org/2000/svg">
<path d="M0 174.829V0H36.8377V77.0854H39.1347L101.835 0H145.99L81.3322 78.2805L146.755 174.829H102.686L54.9588 102.951L36.8377 125.146V174.829H0Z" fill="black"/>
<path d="M201.757 177.305C193.419 177.305 185.989 175.854 179.467 172.951C172.944 169.992 167.783 165.638 163.983 159.89C160.24 154.085 158.368 146.858 158.368 138.207C158.368 130.923 159.701 124.805 162.367 119.854C165.032 114.902 168.662 110.919 173.256 107.902C177.85 104.886 183.068 102.61 188.91 101.073C194.809 99.5366 200.991 98.4553 207.457 97.8293C215.057 97.0325 221.182 96.2927 225.833 95.6097C230.484 94.8699 233.858 93.7886 235.957 92.3658C238.055 90.9431 239.105 88.8374 239.105 86.0488V85.5366C239.105 80.1301 237.403 75.9472 234 72.9878C230.654 70.0285 225.89 68.5488 219.707 68.5488C213.185 68.5488 207.995 70 204.139 72.9024C200.282 75.748 197.73 79.3333 196.482 83.6585L162.962 80.9268C164.664 72.9593 168.01 66.0732 173.001 60.2683C177.992 54.4065 184.43 49.9106 192.313 46.7805C200.254 43.5935 209.442 42 219.878 42C227.137 42 234.085 42.8537 240.721 44.561C247.414 46.2683 253.341 48.9146 258.502 52.5C263.72 56.0854 267.832 60.6951 270.838 66.3293C273.844 71.9065 275.347 78.5935 275.347 86.3902V174.829H240.976V156.646H239.955C237.857 160.744 235.049 164.358 231.533 167.488C228.017 170.561 223.791 172.98 218.857 174.744C213.922 176.451 208.222 177.305 201.757 177.305ZM212.136 152.207C217.467 152.207 222.175 151.154 226.258 149.049C230.342 146.886 233.546 143.984 235.872 140.341C238.197 136.699 239.36 132.573 239.36 127.963V114.049C238.226 114.789 236.666 115.472 234.681 116.098C232.752 116.667 230.569 117.207 228.13 117.72C225.691 118.175 223.252 118.602 220.813 119C218.375 119.341 216.163 119.654 214.178 119.939C209.924 120.565 206.209 121.561 203.033 122.927C199.857 124.293 197.389 126.142 195.631 128.476C193.873 130.752 192.994 133.598 192.994 137.012C192.994 141.963 194.78 145.748 198.354 148.366C201.983 150.927 206.577 152.207 212.136 152.207Z" fill="black"/>
<path d="M303.464 224V43.7073H339.196V65.7317H340.812C342.401 62.2032 344.698 58.6179 347.704 54.9756C350.766 51.2764 354.737 48.2033 359.614 45.7561C364.549 43.252 370.674 42 377.99 42C387.519 42 396.31 44.5041 404.364 49.5122C412.418 54.4634 418.855 61.9472 423.676 71.9634C428.497 81.9228 430.907 94.4146 430.907 109.439C430.907 124.065 428.554 136.415 423.846 146.488C419.195 156.504 412.843 164.102 404.789 169.28C396.792 174.402 387.831 176.963 377.905 176.963C370.872 176.963 364.889 175.797 359.954 173.463C355.077 171.13 351.078 168.199 347.959 164.671C344.839 161.085 342.457 157.472 340.812 153.829H339.706V224H303.464ZM338.941 109.268C338.941 117.065 340.018 123.866 342.174 129.671C344.329 135.476 347.448 140 351.532 143.244C355.616 146.431 360.578 148.024 366.42 148.024C372.319 148.024 377.31 146.402 381.393 143.159C385.477 139.858 388.568 135.305 390.667 129.5C392.822 123.638 393.9 116.894 393.9 109.268C393.9 101.699 392.85 95.0406 390.752 89.2927C388.653 83.5447 385.562 79.0488 381.479 75.8049C377.395 72.561 372.375 70.939 366.42 70.939C360.522 70.939 355.531 72.5041 351.447 75.6341C347.42 78.7642 344.329 83.2032 342.174 88.9512C340.018 94.6992 338.941 101.472 338.941 109.268Z" fill="black"/>
<path d="M563.795 81.0976L530.616 83.1463C530.049 80.3008 528.829 77.7398 526.958 75.4634C525.086 73.1301 522.619 71.2805 519.556 69.9146C516.55 68.4919 512.949 67.7805 508.751 67.7805C503.137 67.7805 498.401 68.9756 494.544 71.3658C490.687 73.6992 488.759 76.8293 488.759 80.7561C488.759 83.8862 490.007 86.5325 492.502 88.6951C494.998 90.8577 499.28 92.5935 505.348 93.9024L528.999 98.6829C541.704 101.301 551.176 105.512 557.415 111.317C563.654 117.122 566.773 124.748 566.773 134.195C566.773 142.789 564.249 150.329 559.201 156.817C554.21 163.305 547.347 168.37 538.613 172.012C529.935 175.598 519.925 177.39 508.581 177.39C491.283 177.39 477.5 173.776 467.235 166.549C457.026 159.264 451.042 149.362 449.284 136.841L484.93 134.963C486.008 140.256 488.617 144.297 492.757 147.085C496.898 149.817 502.201 151.183 508.666 151.183C515.019 151.183 520.123 149.959 523.98 147.512C527.893 145.008 529.879 141.793 529.935 137.866C529.879 134.565 528.489 131.862 525.767 129.756C523.044 127.593 518.847 125.943 513.175 124.805L490.545 120.28C477.784 117.72 468.284 113.28 462.045 106.963C455.863 100.646 452.772 92.5935 452.772 82.8049C452.772 74.3821 455.04 67.126 459.578 61.0366C464.172 54.9472 470.609 50.252 478.89 46.9512C487.227 43.6504 496.983 42 508.156 42C524.661 42 537.649 45.5 547.121 52.5C556.649 59.5 562.207 69.0325 563.795 81.0976Z" fill="black"/>
<path d="M659.101 43.7073V71.0244H580.406V43.7073H659.101ZM598.272 12.2927H634.514V134.537C634.514 137.894 635.025 140.512 636.046 142.39C637.067 144.211 638.485 145.492 640.299 146.232C642.171 146.972 644.326 147.341 646.765 147.341C648.467 147.341 650.168 147.199 651.87 146.915C653.571 146.573 654.876 146.317 655.783 146.146L661.483 173.207C659.668 173.776 657.116 174.431 653.826 175.171C650.537 175.967 646.538 176.451 641.831 176.622C633.096 176.963 625.44 175.797 618.86 173.122C612.338 170.447 607.262 166.293 603.632 160.659C600.002 155.024 598.215 147.911 598.272 139.317V12.2927Z" fill="black"/>
<path d="M682.71 174.829V43.7073H717.846V66.5854H719.207C721.589 58.4472 725.588 52.3008 731.203 48.1463C736.818 43.935 743.283 41.8293 750.6 41.8293C752.415 41.8293 754.372 41.9431 756.47 42.1707C758.569 42.3984 760.412 42.7114 762 43.1097V75.378C760.298 74.8658 757.945 74.4106 754.939 74.0122C751.933 73.6138 749.182 73.4146 746.686 73.4146C741.355 73.4146 736.591 74.5813 732.394 76.9146C728.253 79.1911 724.964 82.378 722.525 86.4756C720.143 90.5732 718.952 95.2967 718.952 100.646V174.829H682.71Z" fill="black"/>
</svg>
