<svg width="30" height="33" viewBox="0 0 30 33" fill="none" xmlns="http://www.w3.org/2000/svg">
<path d="M2.39521 23.3197C2.49016 24.0531 2.78972 24.7127 3.23129 25.2513C3.44372 25.5329 3.69963 25.7908 3.99769 26.0154L4.18356 26.1555C5.86121 27.4198 8.25756 27.1644 9.61898 25.6054C9.92431 25.3278 10.1836 25.0053 10.3868 24.6503L11.0769 23.7865L21.7219 31.808C23.3675 33.0479 25.7371 32.7562 27.015 31.1568L27.3802 30.6995C28.6581 29.1001 28.36 26.7984 26.7148 25.5584L16.0698 17.5369L24.9449 6.42803C26.2837 4.75213 25.9715 2.34043 24.2477 1.04132L24.0617 0.901301C22.3378 -0.397804 19.8548 -0.0923436 18.5159 1.58356L9.62078 12.7176L8.56514 4.56243C8.28955 2.43338 6.28917 0.925996 4.09721 1.19569L3.57191 1.2603C1.37992 1.52995 -0.173605 3.47449 0.101983 5.60359L2.39521 23.3197Z" fill="white"/>
<path d="M25.1009 14.4117C22.7417 14.6804 21.0695 16.5966 21.3627 18.6927C21.6564 20.7888 23.8058 22.2683 26.165 21.9997C28.5236 21.7311 30.1964 19.8148 29.9027 17.7187C29.6094 15.6226 27.46 14.1431 25.1009 14.4117Z" fill="white"/>
</svg>
