<svg width="24" height="26" viewBox="0 0 24 26" fill="none" xmlns="http://www.w3.org/2000/svg">
<path fill-rule="evenodd" clip-rule="evenodd" d="M8.1875 4.35191H15.8658V2.56414H8.1875V4.35191ZM6.43707 2.63756V2.64646C5.83768 2.70097 5.24473 2.82 4.66786 2.99912V2.99244C4.65071 2.99965 4.63457 3.0052 4.61907 3.01053C4.59873 3.01752 4.57951 3.02413 4.56064 3.0336C4.51453 3.04473 4.4695 3.06141 4.42661 3.08255C4.30008 3.12371 4.17356 3.17266 4.05454 3.22273C4.02291 3.23496 3.99128 3.24915 3.95965 3.26333C3.92801 3.27752 3.89638 3.2917 3.86475 3.30394C3.82133 3.32452 3.77602 3.34705 3.73072 3.36958C3.68542 3.3921 3.64012 3.41463 3.59669 3.43521L3.38224 3.5587C3.34259 3.57892 3.30589 3.60264 3.26844 3.62684C3.24614 3.64125 3.22357 3.65583 3.19996 3.66995C2.87721 3.87798 2.57806 4.12162 2.30785 4.39863L2.29177 4.41532C2.25628 4.45669 2.22094 4.49683 2.18608 4.53642C2.1272 4.6033 2.06968 4.66863 2.01513 4.73571L1.99905 4.75129C1.12195 5.96168 0.68233 7.45353 0.75846 8.9654V9.44489H2.49013V8.96095C2.49013 6.8539 3.16136 5.54227 4.655 4.87032C5.22543 4.62891 5.82803 4.47984 6.44136 4.42533H6.45744V2.64534L6.43707 2.63756ZM22.0001 4.72881L22.0076 4.74438C22.8836 5.95589 23.3211 7.44885 23.2439 8.96072V9.44466H21.5133V8.94848C21.5497 8.05627 21.3707 7.1685 20.9911 6.36639C20.6265 5.67999 20.0432 5.1471 19.3387 4.85786C18.778 4.61645 18.1839 4.46626 17.5781 4.41286V2.64178C18.1775 2.6974 18.7705 2.81532 19.3484 2.99444V2.98554C19.3809 3.00027 19.4056 3.00903 19.4482 3.02407L19.4556 3.0267C19.4754 3.03368 19.4938 3.04066 19.512 3.04755C19.5373 3.05715 19.5622 3.06659 19.5897 3.07565C19.7082 3.11454 19.8191 3.16039 19.9331 3.20755L19.9531 3.21582C20.0058 3.23431 20.0554 3.25724 20.1 3.2779C20.1145 3.28459 20.1285 3.29104 20.1419 3.29703C20.2362 3.33819 20.3327 3.38714 20.4099 3.42831C20.4614 3.45502 20.5116 3.48362 20.5586 3.51043C20.584 3.52493 20.6085 3.53891 20.6319 3.55179C20.6703 3.57301 20.7037 3.59571 20.7358 3.61753C20.7593 3.63348 20.782 3.64895 20.8056 3.66304C21.1294 3.87219 21.4318 4.11694 21.7052 4.39172L21.7148 4.40841C21.8156 4.50965 21.9111 4.61645 22.0001 4.72881Z" fill="#979797"/>
<path d="M17.6282 5.33558C17.6282 5.83193 17.2254 6.23396 16.7282 6.23396C16.2309 6.23396 15.8282 5.83193 15.8282 5.33558V1.40514C15.8237 0.908786 16.2242 0.50339 16.7214 0.500021C17.2187 0.496652 17.6248 0.89531 17.6282 1.39167V5.33558Z" fill="black"/>
<path d="M8.175 1.41044V5.34011C8.175 5.83862 7.77176 6.24282 7.27444 6.24282C6.77712 6.24282 6.375 5.83862 6.375 5.34011V1.41044C6.375 0.911928 6.77712 0.508856 7.27444 0.508856C7.77176 0.508856 8.175 0.911928 8.175 1.41044Z" fill="black"/>
<path fill-rule="evenodd" clip-rule="evenodd" d="M0.75 19.1377V9.44488H23.25V19.1377C23.25 23.3645 20.8895 25.5 16.2114 25.5H7.7779C3.11052 25.5 0.75 23.3645 0.75 19.1377ZM5.82833 14.8336C5.82833 15.42 6.2897 15.8958 6.85837 15.8958C7.43777 15.8958 7.89914 15.409 7.88841 14.8225C7.88841 14.2361 7.42704 13.7603 6.8691 13.7603H6.85837C6.2897 13.7603 5.82833 14.2472 5.82833 14.8336ZM10.9688 14.8336C10.9688 15.42 11.4409 15.8958 12.0095 15.8958C12.5782 15.8958 13.0396 15.42 13.0396 14.8225C13.0396 14.2472 12.5782 13.7714 12.0095 13.7603H11.9988C11.4301 13.7714 10.9688 14.2472 10.9688 14.8336ZM17.1472 15.896C16.5786 15.896 16.1172 15.4202 16.1172 14.8338C16.1172 14.2473 16.5678 13.7715 17.1472 13.7715C17.7159 13.7715 18.1773 14.2473 18.1773 14.8338C18.1773 15.4202 17.7159 15.896 17.1472 15.896ZM17.1501 20.4326C16.5815 20.4326 16.1201 19.9568 16.1094 19.3704C16.1094 18.7839 16.5707 18.3082 17.1394 18.3082H17.1501C17.7188 18.3082 18.1802 18.7839 18.1802 19.3704C18.1802 19.9568 17.7188 20.4326 17.1501 20.4326ZM12.0095 20.4324C11.4409 20.4324 10.9688 19.9567 10.9688 19.3702C10.9688 18.7838 11.4301 18.308 11.9988 18.2969H12.0095C12.5782 18.308 13.0288 18.7838 13.0396 19.3592C13.0396 19.9567 12.5782 20.4324 12.0095 20.4324ZM6.85835 20.4324C6.28968 20.4324 5.82831 19.9566 5.82831 19.3702C5.81758 18.7838 6.27895 18.2969 6.85835 18.2969C7.42702 18.2969 7.88839 18.7727 7.88839 19.3591C7.88839 19.9456 7.42702 20.4324 6.85835 20.4324Z" fill="black"/>
</svg>
