<svg width="23" height="20" viewBox="0 0 23 20" fill="none" xmlns="http://www.w3.org/2000/svg">
<path d="M10.248 3.85991C9.81776 3.68586 9.46142 3.36758 9.24009 2.95962C9.01875 2.55166 8.94619 2.07941 9.03485 1.62382C9.12351 1.16824 9.36786 0.757664 9.72603 0.462475C10.0842 0.167286 10.5339 0.00585938 10.998 0.00585938C11.4622 0.00585938 11.9118 0.167286 12.27 0.462475C12.6282 0.757664 12.8725 1.16824 12.9612 1.62382C13.0499 2.07941 12.9773 2.55166 12.756 2.95962C12.5346 3.36758 12.1783 3.68586 11.748 3.85991C12.828 6.69991 13.988 8.12991 15.078 8.25991C16.278 8.38991 17.378 7.83991 18.408 6.52991C18.4518 6.477 18.5022 6.42994 18.558 6.38991C18.285 6.10745 18.1012 5.75085 18.0296 5.36459C17.9579 4.97834 18.0016 4.57954 18.1552 4.21797C18.3088 3.8564 18.5655 3.54807 18.8932 3.33145C19.2209 3.11483 19.6052 2.99952 19.998 2.99991C20.2738 2.9957 20.5474 3.04857 20.8017 3.15518C21.0561 3.2618 21.2856 3.41986 21.4759 3.61943C21.6662 3.81901 21.8132 4.05579 21.9076 4.31489C22.0021 4.57399 22.0419 4.84983 22.0246 5.12506C22.0073 5.40029 21.9333 5.66897 21.8072 5.91422C21.6811 6.15947 21.5056 6.376 21.2918 6.55019C21.078 6.72438 20.8305 6.85247 20.5648 6.92643C20.2992 7.00038 20.0211 7.01859 19.748 6.97991C19.7498 7.04715 19.7431 7.11435 19.728 7.17991L18.108 13.6699C17.9586 14.2647 17.6147 14.7924 17.1309 15.1693C16.6471 15.5462 16.0513 15.7505 15.438 15.7499H6.55802C5.94478 15.7505 5.34891 15.5462 4.86513 15.1693C4.38136 14.7924 4.03743 14.2647 3.88802 13.6699L2.26802 7.17991C2.25308 7.11433 2.24636 7.04715 2.24802 6.97991L1.99802 6.99991C1.53686 6.99945 1.09001 6.83964 0.73316 6.54752C0.376305 6.25541 0.131364 5.84895 0.039811 5.39696C-0.051742 4.94497 0.0157184 4.47523 0.23077 4.06727C0.445822 3.65931 0.795249 3.33821 1.21989 3.15833C1.64453 2.97845 2.11828 2.95084 2.56094 3.08018C3.0036 3.20953 3.38796 3.48787 3.64894 3.86809C3.90992 4.24831 4.03148 4.70704 3.99304 5.1666C3.95461 5.62616 3.75854 6.05832 3.43802 6.38991C3.49802 6.42991 3.53802 6.48991 3.59802 6.54991C4.58802 7.84991 5.66802 8.38991 6.91802 8.24991C8.05802 8.12991 9.20802 6.69991 10.248 3.84991V3.85991ZM16.998 17.7499C17.1969 17.7499 17.3877 17.8289 17.5284 17.9696C17.669 18.1102 17.748 18.301 17.748 18.4999C17.748 18.6988 17.669 18.8896 17.5284 19.0302C17.3877 19.1709 17.1969 19.2499 16.998 19.2499H4.99802C4.79911 19.2499 4.60835 19.1709 4.46769 19.0302C4.32704 18.8896 4.24802 18.6988 4.24802 18.4999C4.24802 18.301 4.32704 18.1102 4.46769 17.9696C4.60835 17.8289 4.79911 17.7499 4.99802 17.7499H16.998Z" fill="#F83972"/>
</svg>
