<svg width="30" height="30" viewBox="0 0 30 30" fill="none" xmlns="http://www.w3.org/2000/svg">
<path fill-rule="evenodd" clip-rule="evenodd" d="M10.6645 3.67096C13.3956 2.08409 16.7525 2.11183 19.458 3.74362C22.1368 5.40864 23.765 8.38022 23.7498 11.5768C23.6874 14.7524 21.9416 17.7375 19.7593 20.0451C18.4998 21.383 17.0908 22.566 15.5611 23.57C15.4035 23.6611 15.2309 23.7221 15.0519 23.75C14.8795 23.7427 14.7116 23.6917 14.5634 23.6018C12.228 22.0932 10.1792 20.1675 8.51542 17.9175C7.12324 16.0392 6.33229 13.77 6.25 11.418C6.24819 8.21531 7.93346 5.25784 10.6645 3.67096ZM12.241 12.7437C12.7004 13.8762 13.7847 14.615 14.9878 14.615C15.7759 14.6206 16.5335 14.305 17.0918 13.7383C17.65 13.1716 17.9626 12.401 17.9598 11.5982C17.964 10.3727 17.2426 9.26557 16.1323 8.79364C15.0221 8.32172 13.7421 8.57811 12.8899 9.44311C12.0377 10.3081 11.7815 11.6111 12.241 12.7437Z" fill="black"/>
<path d="M15 27.5C15 27.5 21.25 26.9404 21.25 26.25C21.25 25.5596 18.4518 25 15 25C11.5482 25 8.75 25.5596 8.75 26.25C8.75 26.9404 15 27.5 15 27.5Z" fill="#D0D0D0"/>
</svg>
