<svg width="19" height="19" viewBox="0 0 19 19" fill="none" xmlns="http://www.w3.org/2000/svg">
<path d="M17.1987 17.2622H1.51614V9.96251H17.1987V17.2622ZM4.26057 6.82709H14.4542C14.8463 6.82709 15.1894 7.17003 15.1894 7.56196C15.1894 7.95389 14.8463 8.29683 14.4542 8.29683H4.26057C3.86851 8.29683 3.52545 7.95389 3.52545 7.56196C3.52545 7.17003 3.86851 6.82709 4.26057 6.82709ZM17.0026 5.06338C15.9735 5.06338 15.0913 4.23054 15.0913 3.15273V2.46684C15.0913 1.14408 14.0132 0.115265 12.739 0.115265H7.98516C6.66195 0.115265 5.63282 1.19307 5.63282 2.46684V3.15273C5.63282 4.18155 4.79967 5.06338 3.72149 5.06338H0.0458984V18.2421C0.0458984 18.536 0.24193 18.732 0.535978 18.732H18.1788C18.4729 18.732 18.6689 18.536 18.6689 18.2421V5.06338H17.0026Z" fill="#282828"/>
</svg>
