<svg width="55" height="55" viewBox="0 0 55 55" fill="none" xmlns="http://www.w3.org/2000/svg">
<path d="M55 27.5C55 27.6875 54.865 27.8451 54.6774 27.8676C33.5161 31.0106 31.0106 33.5236 27.8676 54.6774C27.8376 54.8575 27.68 55 27.5 55C27.32 55 27.1549 54.865 27.1324 54.6774C23.9894 33.5161 21.4764 31.0106 0.322558 27.8676C0.142525 27.8376 0 27.68 0 27.5C0 27.32 0.135024 27.1549 0.322558 27.1324C21.4839 23.9894 23.9894 21.4764 27.1324 0.322559C27.1624 0.142526 27.32 0 27.5 0C27.68 0 27.8451 0.135025 27.8676 0.322559C31.0106 21.4839 33.5236 23.9894 54.6774 27.1324C54.8575 27.1624 55 27.32 55 27.5Z" fill="black"/>
<path d="M19 10.5C19 10.5648 18.9534 10.6192 18.8886 10.627C11.5783 11.7128 10.7128 12.5809 9.62698 19.8886C9.61661 19.9508 9.56219 20 9.5 20C9.43781 20 9.3808 19.9534 9.37302 19.8886C8.28723 12.5783 7.41912 11.7128 0.111429 10.627C0.0492361 10.6166 0 10.5622 0 10.5C0 10.4378 0.0466447 10.3808 0.111429 10.373C7.42171 9.28723 8.28723 8.41912 9.37302 1.11143C9.38339 1.04924 9.43781 1 9.5 1C9.56219 1 9.6192 1.04664 9.62698 1.11143C10.7128 8.42171 11.5809 9.28723 18.8886 10.373C18.9508 10.3834 19 10.4378 19 10.5Z" fill="black"/>
<path d="M48 14.5C48 14.5375 47.973 14.569 47.9355 14.5735C43.7032 15.2021 43.2021 15.7047 42.5735 19.9355C42.5675 19.9715 42.536 20 42.5 20C42.464 20 42.431 19.973 42.4265 19.9355C41.7979 15.7032 41.2953 15.2021 37.0645 14.5735C37.0285 14.5675 37 14.536 37 14.5C37 14.464 37.027 14.431 37.0645 14.4265C41.2968 13.7979 41.7979 13.2953 42.4265 9.06451C42.4325 9.0285 42.464 9 42.5 9C42.536 9 42.569 9.027 42.5735 9.06451C43.2021 13.2968 43.7047 13.7979 47.9355 14.4265C47.9715 14.4325 48 14.464 48 14.5Z" fill="black"/>
<path d="M19 41.5C19 41.5375 18.973 41.569 18.9355 41.5735C14.7032 42.2021 14.2021 42.7047 13.5735 46.9355C13.5675 46.9715 13.536 47 13.5 47C13.464 47 13.431 46.973 13.4265 46.9355C12.7979 42.7032 12.2953 42.2021 8.06451 41.5735C8.0285 41.5675 8 41.536 8 41.5C8 41.464 8.027 41.431 8.06451 41.4265C12.2968 40.7979 12.7979 40.2953 13.4265 36.0645C13.4325 36.0285 13.464 36 13.5 36C13.536 36 13.569 36.027 13.5735 36.0645C14.2021 40.2968 14.7047 40.7979 18.9355 41.4265C18.9715 41.4325 19 41.464 19 41.5Z" fill="black"/>
</svg>
